:SAMPLES-PER-SECOND 30
:FRAME-RANGE 1-1086
:FULLY-SPECIFIED
:DEGREES
204
root  -82.1829 38.159 -98.1636 0.905853 -0.565155 -3.08073
RightUpLeg  -20.4016 -7.71401 -0.897821
RightLeg  24.4316 -3.56761 -1.99807
RightFoot  -3.28178 -0.398201 5.32999
RightToes  1.21801e-010 1.2921e-014 -6.02303e-014
Spine  -1.29252 3.57799 14.6495
Spine1  6.15636 5.91358 -8.7742
HEad  13.6038 6.11392 -3.93598
LeftShoulder1  1.25099 -1.63243 -19.0564
LeftArm  -4.90342 -7.27484 -50.917
LeftForeArm  -9.14572 -43.9021 -11.3558
LeftHand  -0.0386521 3.92615 1.90814
RightShoulder  2.57233 7.51355 17.276
RightArm  -0.963426 40.3706 53.9692
RightForeArm  8.4596 12.2585 9.93702
RightHand  -0.0124504 -0.184251 -0.25712
LeftUpLeg  -17.4025 -18.9426 7.78794
LeftLeg  61.7225 -0.100536 0.404922
LeftFoot  -7.05268 0.172668 -3.48095
LeftToes  3.79492e-011 -8.60219e-011 1.56273e-011
205
root  -82.9393 38.4127 -97.5001 1.90411 0.859619 -2.96689
RightUpLeg  -19.6871 -9.43557 0.278689
RightLeg  23.4179 -3.53493 -1.9031
RightFoot  -3.97114 -0.291813 4.10818
RightToes  1.21801e-010 1.2921e-014 -6.02303e-014
Spine  -0.449344 3.78791 15.0006
Spine1  4.96059 6.14846 -9.38518
HEad  13.026 3.72279 -3.54689
LeftShoulder1  1.33926 -1.97082 -19.11
LeftArm  -4.74989 -7.65909 -50.9077
LeftForeArm  -9.56065 -43.445 -11.204
LeftHand  -0.0380424 3.91704 1.79107
RightShoulder  2.58269 7.66775 17.016
RightArm  -3.46347 41.3777 53.9643
RightForeArm  11.2148 10.9756 10.0501
RightHand  -0.00641653 -0.130269 -0.126836
LeftUpLeg  -20.5295 -17.0696 7.30706
LeftLeg  58.3249 -0.0983586 0.373763
LeftFoot  -9.22163 0.119812 -3.48659
LeftToes  3.79492e-011 -8.60219e-011 1.56273e-011
206
root  -83.6498 38.6625 -96.8992 3.07172 2.10199 -2.70857
RightUpLeg  -19.1077 -11.1341 1.33123
RightLeg  21.8759 -3.36412 -1.67774
RightFoot  -4.36002 -0.212116 2.98942
RightToes  1.21801e-010 1.2921e-014 -6.02303e-014
Spine  0.309621 4.01459 15.1999
Spine1  4.17818 6.45633 -10.2758
HEad  11.6567 1.30778 -3.2696
LeftShoulder1  1.41043 -2.26578 -19.0399
LeftArm  -4.86404 -8.63444 -51.0324
LeftForeArm  -9.90381 -42.9005 -11.0176
LeftHand  -0.0394487 3.9415 1.54932
RightShoulder  2.59675 7.87763 16.6728
RightArm  -4.891 42.5209 53.6465
RightForeArm  12.4119 10.552 9.88513
RightHand  0.00773606 -0.264649 0.209451
LeftUpLeg  -23.0005 -15.0478 6.24499
LeftLeg  52.7393 0.0042307 0.480081
LeftFoot  -11.1496 0.0717796 -2.94348
LeftToes  3.79492e-011 -8.60219e-011 1.56273e-011
207
root  -84.2888 38.8625 -96.3469 4.27502 3.44751 -2.37984
RightUpLeg  -18.853 -12.5137 2.07721
RightLeg  20.8211 -3.50981 -1.38401
RightFoot  -4.76077 -0.148408 2.01751
RightToes  1.21801e-010 1.2921e-014 -6.02303e-014
Spine  0.525364 4.14475 15.2241
Spine1  4.33461 6.6013 -10.6378
HEad  9.83536 -0.654694 -3.2477
LeftShoulder1  1.4733 -2.4885 -19.1616
LeftArm  -5.21771 -10.0967 -51.1933
LeftForeArm  -10.1993 -42.2342 -10.7873
LeftHand  -0.0395374 3.74852 1.43853
RightShoulder  2.58024 8.19793 15.8108
RightArm  -7.26591 44.0826 53.766
RightForeArm  14.2542 9.59242 9.57844
RightHand  0.0145243 -0.332806 0.377977
LeftUpLeg  -24.8292 -13.1985 4.97093
LeftLeg  45.8208 -0.988672 -0.676762
LeftFoot  -11.3606 0.0674647 -3.74298
LeftToes  3.79492e-011 -8.60219e-011 1.56273e-011
